<svg width="745" height="555" viewBox="0 0 745 555" fill="none" xmlns="http://www.w3.org/2000/svg">
<path opacity="0.34" d="M124.881 320.897L157.923 314.567L202.864 289.498C207.578 286.869 207.28 280.014 202.36 277.797L179.295 267.445L124.881 320.897Z" fill="#ABABAB"/>
<path d="M169.616 164.905L169.433 164.79L168.998 267.148C168.998 267.582 168.77 267.993 168.381 268.199L101.976 306.134C101.152 306.591 100.58 200.326 100.58 200.326C100.58 199.892 100.809 199.481 101.198 199.275L167.328 161.523C167.671 161.34 168.152 161.157 168.518 161.317L170.715 162.459L169.616 164.905Z" fill="#0BAF1B"/>
<path d="M103.143 200.395L169.548 162.46C170.371 162.002 171.378 162.574 171.378 163.534L170.966 268.29C170.966 268.724 170.737 269.136 170.348 269.342L103.944 307.277C103.624 306.729 103.051 306.02 102.113 306.203L102.548 201.469C102.525 201.012 102.777 200.624 103.143 200.395Z" fill="#00C213"/>
<path d="M188.472 175.714C176.436 173.452 173.644 172.195 170.029 166.687L107.285 202.566C107.811 206.702 112.205 212.21 127.193 211.593L188.472 175.714Z" fill="#FFFAFA"/>
<path d="M191.789 176.148L188.677 174.434C188.311 174.114 187.67 174.183 187.189 174.457L121.54 211.935C121.151 212.141 120.922 212.553 120.922 212.987L120.487 317.721C120.487 318.657 121.494 319.252 122.318 318.795L188.722 280.859C189.111 280.653 189.34 280.242 189.34 279.808L189.752 179.325L191.514 179.142L191.789 176.148Z" fill="#00C213"/>
<path d="M123.897 214.564C111.563 215.432 104.699 208.325 100.648 199.915L101.678 307.414C101.884 319.983 121.998 322.862 123.897 321.011V214.564Z" fill="#00C213"/>
<path d="M124.332 214.152L190.736 176.217C191.56 175.76 192.567 176.331 192.567 177.291L192.132 282.025C192.132 282.459 191.903 282.87 191.514 283.076L124.881 320.874C124.057 321.331 123.279 320.874 123.279 319.937L123.714 215.204C123.714 214.769 123.943 214.381 124.332 214.152Z" fill="#01E45C"/>
<path opacity="0.34" d="M178.288 345.784L210.346 339.293L250.962 314.384C255.219 311.779 253.662 305.06 248.308 302.958L223.229 293.062L178.288 345.784Z" fill="#ABABAB"/>
<path d="M194.809 192.899L194.603 192.785L212.84 292.834C212.909 293.268 212.749 293.657 212.406 293.862L152.545 331.546C151.813 332.003 131.837 228.138 131.837 228.138C131.768 227.704 131.928 227.315 132.272 227.11L191.857 189.586C192.155 189.403 192.612 189.22 193.001 189.38L195.427 190.477L194.809 192.899Z" fill="#7C64BA"/>
<path d="M134.468 228.229L194.328 190.545C195.06 190.088 196.204 190.66 196.365 191.574L215.037 293.954C215.105 294.388 214.945 294.776 214.602 294.982L154.742 332.666C154.307 332.118 153.62 331.455 152.705 331.638L134.033 229.258C133.965 228.824 134.125 228.435 134.468 228.229Z" fill="#504078"/>
<path d="M215.747 203.297C203.253 201.195 200.187 199.984 195.565 194.659L139.022 230.309C140.304 234.354 145.727 239.701 160.692 238.947L215.747 203.297Z" fill="#FFFAFA"/>
<path d="M219.156 203.686L215.724 202.04C215.289 201.743 214.671 201.789 214.236 202.063L155.063 239.336C154.719 239.542 154.559 239.953 154.628 240.364L173.3 342.744C173.46 343.658 174.604 344.23 175.336 343.772L235.197 306.088C235.54 305.883 235.7 305.471 235.631 305.06L217.714 206.817L219.454 206.611L219.156 203.686Z" fill="#504078"/>
<path d="M157.923 241.872C145.681 242.832 137.489 235.954 131.883 227.772L152.523 332.849C155.017 345.144 175.771 347.772 177.35 345.943L157.923 241.872Z" fill="#8B73CB"/>
<path d="M158.266 241.461L218.126 203.777C218.858 203.32 220.002 203.891 220.162 204.805L238.834 307.185C238.903 307.62 238.743 308.008 238.4 308.214L178.288 345.784C177.556 346.241 176.663 345.806 176.503 344.892L157.831 242.512C157.762 242.078 157.923 241.667 158.266 241.461Z" fill="#7C64BA"/>
<path d="M160.531 245.186L178.517 341.556" stroke="#433878" stroke-width="2.576" stroke-miterlimit="10" stroke-linecap="round" stroke-linejoin="round"/>
<path d="M210.14 247.951L186.48 261C182.087 263.423 177.19 261.617 175.611 256.978L175.039 255.31C173.46 250.671 175.771 244.889 180.165 242.444L203.825 229.395C208.218 226.973 213.115 228.778 214.694 233.417L215.266 235.085C216.845 239.724 214.534 245.506 210.14 247.951Z" stroke="#FFFAFA" stroke-width="3.7942" stroke-miterlimit="10"/>
<path d="M100.924 255.675C106.416 270.05 115.477 278.688 123.257 282.824V269.364C115.317 264.588 107.857 254.464 100.924 238.993V255.675Z" fill="#FFFAFA"/>
<path d="M216.753 360.432L216.822 351.017L224.464 357.461L226.112 353.691L417.752 243.198C420.063 241.873 424.639 242.033 427.316 243.564L510.334 291.143V289.817L522.942 295.942L524.704 295.234L524.475 301.038C524.292 302.295 523.788 302.821 523.01 303.278L323.591 418.569C321.28 419.895 317.206 419.895 314.552 418.341L218.995 363.312C217.531 362.466 216.799 361.438 216.799 360.409L216.753 360.432Z" fill="#2B2B2B"/>
<path d="M323.66 410.822L523.08 295.828C525.391 294.502 525.094 292.148 522.439 290.617L426.883 235.52C424.228 233.988 420.155 233.806 417.844 235.154L218.424 350.149C216.113 351.474 216.411 353.828 219.065 355.359L314.622 410.457C317.299 411.988 321.349 412.148 323.66 410.822Z" fill="#FFFAFA"/>
<path d="M196.754 213.375C194.1 214.906 192.315 218.426 192.773 221.237L213.458 348.983C213.916 351.794 216.433 352.845 219.087 351.314L414.983 238.353C417.638 236.822 419.423 233.303 418.965 230.492L398.279 102.746C397.822 99.9347 395.305 98.8834 392.65 100.415L196.754 213.375Z" fill="#FFFAFA"/>
<path d="M184.901 202.109C184.901 202.04 184.901 201.972 184.901 201.88V201.858V201.835C184.901 201.789 184.901 201.743 184.924 201.675C184.924 201.606 184.947 201.538 184.947 201.469C184.947 201.446 184.947 201.4 184.97 201.378C184.97 201.355 184.97 201.355 184.97 201.332C184.97 201.309 184.97 201.286 184.97 201.263C184.97 201.195 184.993 201.126 185.016 201.058C185.039 200.989 185.039 200.921 185.061 200.852C185.084 200.783 185.084 200.715 185.107 200.646C185.13 200.578 185.153 200.509 185.153 200.441C185.153 200.418 185.153 200.395 185.176 200.395C185.176 200.372 185.176 200.372 185.199 200.349C185.199 200.304 185.222 200.281 185.222 200.235C185.244 200.166 185.267 200.098 185.29 200.029C185.313 199.984 185.336 199.938 185.336 199.869V199.846V199.824C185.359 199.755 185.382 199.686 185.405 199.641C185.428 199.572 185.45 199.527 185.473 199.458C185.473 199.435 185.496 199.412 185.496 199.389C185.496 199.389 185.496 199.367 185.519 199.367C185.519 199.344 185.542 199.321 185.542 199.298C185.565 199.229 185.588 199.161 185.633 199.115C185.679 199.069 185.702 198.978 185.725 198.932V198.91C185.725 198.91 185.725 198.887 185.748 198.887C185.771 198.818 185.817 198.75 185.839 198.681C185.862 198.612 185.908 198.567 185.931 198.498C185.954 198.452 185.977 198.407 186 198.384C186 198.361 186.022 198.338 186.022 198.338C186.091 198.247 186.137 198.155 186.206 198.041C186.228 198.018 186.251 197.973 186.274 197.95C186.274 197.95 186.274 197.95 186.274 197.927C186.343 197.813 186.434 197.698 186.526 197.584C186.549 197.561 186.549 197.561 186.572 197.538C186.572 197.516 186.595 197.515 186.595 197.493C186.617 197.447 186.663 197.424 186.686 197.378C186.732 197.31 186.778 197.241 186.846 197.196C186.869 197.173 186.892 197.15 186.915 197.127C186.915 197.104 186.938 197.104 186.938 197.081C186.961 197.058 186.984 197.036 187.006 197.013C187.052 196.944 187.121 196.898 187.167 196.83C187.212 196.784 187.258 196.739 187.281 196.693L187.304 196.67L187.327 196.647C187.373 196.579 187.441 196.533 187.51 196.487C187.578 196.419 187.624 196.373 187.693 196.327C187.762 196.281 187.807 196.213 187.876 196.167C187.945 196.121 188.013 196.053 188.059 196.007L188.082 195.984L188.105 195.962C188.15 195.916 188.196 195.893 188.242 195.847C188.311 195.802 188.379 195.756 188.448 195.71C188.471 195.687 188.494 195.687 188.494 195.664C188.494 195.664 188.517 195.664 188.517 195.642C188.562 195.619 188.585 195.596 188.631 195.573C188.7 195.527 188.768 195.482 188.837 195.459C188.86 195.459 193.574 192.739 193.574 192.716L199.386 196.236C199.386 196.236 194.397 198.841 194.329 198.887C194.26 198.932 194.191 198.978 194.123 199.024C194.054 199.069 193.985 199.115 193.917 199.161C193.848 199.207 193.78 199.252 193.734 199.298C193.711 199.321 193.688 199.344 193.665 199.367C193.574 199.458 193.459 199.527 193.368 199.618C193.276 199.709 193.162 199.801 193.07 199.892C193.047 199.915 193.047 199.915 193.024 199.938C192.933 200.029 192.841 200.121 192.75 200.212C192.727 200.235 192.727 200.235 192.704 200.258C192.613 200.349 192.544 200.441 192.452 200.555C192.429 200.578 192.429 200.601 192.407 200.601C192.338 200.692 192.246 200.806 192.178 200.898C192.132 200.943 192.109 201.012 192.063 201.058C192.018 201.126 191.972 201.195 191.926 201.263C191.88 201.332 191.835 201.423 191.789 201.492C191.766 201.538 191.72 201.583 191.697 201.652C191.674 201.698 191.651 201.743 191.629 201.789C191.583 201.88 191.537 201.949 191.491 202.04C191.468 202.063 191.468 202.086 191.446 202.109C191.377 202.223 191.331 202.337 191.285 202.452C191.285 202.452 191.285 202.475 191.262 202.475C191.217 202.589 191.148 202.726 191.102 202.84C191.102 202.863 191.102 202.863 191.079 202.886C191.034 203 190.988 203.137 190.942 203.252C190.942 203.274 190.942 203.274 190.919 203.297C190.873 203.411 190.828 203.549 190.805 203.663C190.805 203.686 190.805 203.709 190.782 203.709C190.736 203.823 190.713 203.96 190.69 204.074C190.69 204.097 190.69 204.12 190.668 204.12C190.645 204.234 190.622 204.371 190.599 204.486C190.599 204.508 190.599 204.531 190.599 204.531C190.576 204.646 190.553 204.783 190.553 204.897C190.553 204.92 190.553 204.92 190.553 204.943C190.53 205.057 190.53 205.194 190.53 205.308C190.53 205.377 190.53 205.423 190.53 205.491C190.53 205.56 190.53 205.628 190.53 205.697C190.53 205.765 190.53 205.857 190.53 205.925C190.53 205.994 190.53 206.085 190.553 206.154C190.553 206.245 190.576 206.314 190.576 206.405C190.576 206.474 190.599 206.519 190.599 206.588C190.599 206.588 190.622 206.702 190.645 206.931L191.148 210.084C191.446 209.924 192.063 209.559 192.086 209.536L197.99 212.735C197.99 212.735 196.571 213.558 196.502 213.604C196.434 213.649 196.365 213.695 196.297 213.741C196.228 213.787 196.159 213.832 196.091 213.878C196.022 213.924 195.953 213.969 195.908 214.015C195.885 214.038 195.862 214.061 195.839 214.084C195.747 214.175 195.633 214.244 195.541 214.335C195.45 214.426 195.336 214.518 195.244 214.609C195.221 214.632 195.221 214.632 195.198 214.655C195.107 214.746 195.015 214.838 194.924 214.929C194.901 214.952 194.901 214.952 194.878 214.975C194.786 215.066 194.718 215.158 194.626 215.272C194.603 215.295 194.603 215.318 194.58 215.318C194.512 215.409 194.42 215.523 194.352 215.615C194.306 215.661 194.283 215.729 194.237 215.775C194.191 215.843 194.146 215.912 194.1 215.98C194.054 216.049 194.008 216.14 193.963 216.209C193.94 216.255 193.894 216.3 193.871 216.369C193.848 216.415 193.825 216.46 193.802 216.506C193.757 216.597 193.711 216.666 193.665 216.757C193.642 216.78 193.642 216.803 193.619 216.826C193.551 216.94 193.505 217.055 193.459 217.169C193.459 217.169 193.459 217.192 193.436 217.192C193.39 217.306 193.322 217.443 193.276 217.557C193.276 217.58 193.276 217.58 193.253 217.603C193.207 217.717 193.162 217.854 193.116 217.969C193.116 217.991 193.116 217.991 193.093 218.014C193.047 218.129 193.002 218.266 192.979 218.38C192.979 218.403 192.979 218.426 192.956 218.426C192.91 218.54 192.887 218.677 192.864 218.791C192.864 218.814 192.864 218.837 192.841 218.837C192.818 218.951 192.796 219.088 192.773 219.203C192.773 219.226 192.773 219.248 192.773 219.248C192.75 219.363 192.727 219.5 192.727 219.614C192.727 219.637 192.727 219.637 192.727 219.66C192.727 219.705 192.727 219.751 192.704 219.82L211.01 332.826C211.101 333.42 213.435 337.26 212.909 336.94L211.261 335.546L213.206 347.566C213.298 348.16 215.632 352 215.106 351.68L209.637 346.903C208.447 345.898 207.669 344.527 207.417 342.996L187.395 219.454C187.304 218.86 187.144 217.946 187.144 217.946C187.144 217.877 187.121 217.832 187.121 217.763C187.121 217.717 187.121 217.649 187.098 217.603V217.58C187.098 217.557 187.098 217.534 187.098 217.534C187.098 217.466 187.098 217.374 187.075 217.306C187.075 217.237 187.075 217.192 187.075 217.123V217.1V217.077C187.075 217.009 187.075 216.94 187.075 216.872C187.075 216.803 187.075 216.735 187.075 216.643V216.62V216.597C187.075 216.552 187.075 216.506 187.075 216.46L185.176 204.737C185.084 204.143 184.924 203.229 184.924 203.229C184.924 203.16 184.901 203.114 184.901 203.046C184.901 203 184.901 202.932 184.878 202.886V202.863C184.878 202.84 184.878 202.817 184.878 202.817C184.878 202.749 184.878 202.657 184.855 202.589C184.855 202.52 184.855 202.475 184.855 202.406V202.383V202.36C184.901 202.269 184.901 202.177 184.901 202.109Z" fill="#FFFAFA"/>
<path d="M189.981 196.03L194.26 198.498C194.488 198.635 194.763 198.635 194.969 198.498L389.446 86.3602L390.522 85.7432C390.567 85.7203 390.636 85.6746 390.682 85.6518C390.75 85.6061 390.819 85.5832 390.888 85.5375C391.048 85.4461 391.208 85.3775 391.368 85.3318C391.391 85.3318 391.391 85.3318 391.414 85.309C391.574 85.2633 391.711 85.1947 391.872 85.1719C391.895 85.1719 391.895 85.1719 391.917 85.1719C392.078 85.1262 392.215 85.1033 392.375 85.0805H392.398C392.535 85.0576 392.673 85.0576 392.81 85.0576C392.833 85.0576 392.856 85.0576 392.878 85.0576C393.016 85.0576 393.153 85.0576 393.267 85.0805C393.313 85.0805 393.336 85.0805 393.382 85.1033C393.473 85.1262 393.565 85.1262 393.656 85.149C393.725 85.1719 393.817 85.1947 393.885 85.2176C393.954 85.2404 394 85.2633 394.068 85.2861C394.229 85.3547 394.389 85.4232 394.526 85.4918L388.828 82.1782C388.691 82.0868 388.531 82.0182 388.371 81.9725C388.348 81.9725 388.348 81.9496 388.325 81.9496H388.302C388.188 81.9039 388.05 81.8811 387.913 81.8354H387.89C387.844 81.8354 387.821 81.8354 387.776 81.8125C387.707 81.8125 387.638 81.7897 387.57 81.7897C387.547 81.7897 387.547 81.7897 387.524 81.7897C387.478 81.7897 387.432 81.7897 387.387 81.7897C387.341 81.7897 387.295 81.7897 387.272 81.7897H387.249C387.158 81.7897 387.066 81.7897 386.975 81.7897H386.952C386.883 81.7897 386.792 81.8125 386.723 81.8125C386.7 81.8125 386.677 81.8125 386.654 81.8125C386.632 81.8125 386.609 81.8125 386.563 81.8354C386.54 81.8354 386.494 81.8354 386.471 81.8582C386.403 81.8811 386.334 81.8811 386.288 81.9039H386.265C386.265 81.9039 386.265 81.9039 386.243 81.9039C386.174 81.9268 386.082 81.9496 386.014 81.9725C385.945 81.9954 385.876 82.0182 385.808 82.0411C385.739 82.0639 385.671 82.0868 385.602 82.1096C385.533 82.1325 385.465 82.1553 385.396 82.201C385.327 82.2239 385.259 82.2696 385.19 82.2924C385.121 82.3153 385.053 82.361 384.984 82.4067C384.961 82.4296 384.687 82.5667 384.481 82.7038L384.183 82.8638C384.183 82.8638 384.183 82.8638 384.16 82.8638L190.003 194.819C189.5 195.047 189.5 195.733 189.981 196.03Z" fill="#EDE1E1"/>
<path d="M194.603 198.498C191.949 200.029 190.164 203.549 190.621 206.36L211.307 334.106C211.765 336.917 214.282 337.968 216.936 336.437L412.832 223.476C415.486 221.945 417.271 218.426 416.813 215.615L396.128 87.8685C395.67 85.0576 393.153 84.0064 390.499 85.5375L194.603 198.498Z" fill="#2B2B2B"/>
<path d="M201.605 206.725C199.088 208.142 197.372 211.227 197.784 213.581L216.501 320.76C216.913 323.114 219.293 323.891 221.81 322.451L407.615 217.329C410.132 215.912 411.848 212.827 411.436 210.473L392.719 103.294C392.307 100.94 389.927 100.163 387.41 101.603L201.605 206.725Z" fill="#545454"/>
<path d="M419.994 234.925L218.973 350.788" stroke="#463757" stroke-width="2.4286" stroke-miterlimit="10" stroke-linecap="round" stroke-linejoin="round"/>
<path d="M413.039 263.217C413.337 263.377 413.932 263.309 414.366 263.057L426.585 256.019C427.02 255.767 427.157 255.424 426.86 255.242L418.76 250.58C418.462 250.42 417.867 250.488 417.433 250.74L405.213 257.778C404.779 258.03 404.641 258.372 404.939 258.555L413.039 263.217Z" fill="#DFDFDF"/>
<path d="M398.851 284.241C399.149 284.401 399.744 284.356 400.178 284.081L412.397 277.043C412.832 276.792 412.947 276.449 412.649 276.266L404.549 271.604C404.251 271.444 403.656 271.513 403.222 271.764L391.003 278.803C390.545 279.054 390.431 279.397 390.728 279.557L398.851 284.241Z" fill="#DFDFDF"/>
<path d="M406.036 292.994C406.333 293.154 406.928 293.086 407.363 292.834L419.582 285.796C420.017 285.544 420.154 285.201 419.857 285.041L411.757 280.357C411.459 280.197 410.864 280.265 410.429 280.517L398.21 287.555C397.776 287.807 397.661 288.149 397.936 288.309L406.036 292.994Z" fill="#DFDFDF"/>
<path d="M425.418 294.662C425.715 294.822 426.31 294.754 426.745 294.502L438.964 287.464C439.399 287.212 439.513 286.87 439.239 286.71L431.138 282.048C430.841 281.888 430.246 281.956 429.811 282.208L417.592 289.246C417.157 289.498 417.043 289.84 417.317 290L425.418 294.662Z" fill="#DFDFDF"/>
<path d="M459.054 289.772C459.352 289.932 459.947 289.863 460.382 289.612L472.601 282.573C473.035 282.322 473.173 281.979 472.875 281.796L463.356 276.312C463.082 276.152 462.464 276.22 462.029 276.472L449.81 283.51C449.375 283.762 449.261 284.104 449.535 284.264L459.054 289.772Z" fill="#DFDFDF"/>
<path d="M437.981 301.907C438.278 302.067 438.987 301.952 439.559 301.61L455.577 292.377C456.149 292.057 456.378 291.646 456.103 291.463L446.584 285.978C446.31 285.818 445.577 285.956 445.005 286.275L428.988 295.508C428.416 295.851 428.187 296.262 428.462 296.422L437.981 301.907Z" fill="#DFDFDF"/>
<path d="M332.791 362.626C333.042 362.763 333.591 362.672 334.026 362.421L346.245 355.382C346.68 355.131 346.863 354.811 346.612 354.674L343.088 352.64C342.836 352.503 342.287 352.594 341.829 352.845L329.61 359.884C329.175 360.135 329.015 360.455 329.244 360.592L332.791 362.626Z" fill="#DFDFDF"/>
<path d="M316.452 372.293C316.703 372.43 317.252 372.339 317.687 372.087L329.906 365.049C330.341 364.797 330.524 364.477 330.273 364.34L326.749 362.306C326.497 362.169 325.948 362.261 325.49 362.512L313.271 369.551C312.836 369.802 312.676 370.122 312.905 370.259L316.452 372.293Z" fill="#DFDFDF"/>
<path d="M299.129 382.051C299.358 382.188 299.907 382.097 300.365 381.845L312.584 374.807C313.019 374.555 313.202 374.235 312.973 374.098L309.587 372.133C309.358 371.996 308.786 372.11 308.351 372.361L296.132 379.4C295.697 379.651 295.514 379.971 295.766 380.108L299.129 382.051Z" fill="#DFDFDF"/>
<path d="M309.793 368.568C310.022 368.705 310.571 368.614 311.029 368.362L323.248 361.324C323.683 361.072 323.866 360.752 323.637 360.615L320.251 358.65C320.022 358.513 319.45 358.627 319.015 358.878L306.796 365.917C306.361 366.168 306.178 366.488 306.43 366.626L309.793 368.568Z" fill="#DFDFDF"/>
<path d="M353.91 350.354C354.208 350.514 354.803 350.446 355.237 350.194L434.776 304.352C435.211 304.101 435.348 303.758 435.051 303.575L425.532 298.09C425.257 297.93 424.639 297.999 424.205 298.25L344.666 344.093C344.231 344.344 344.094 344.687 344.391 344.87L353.91 350.354Z" fill="#DFDFDF"/>
<path d="M440.177 298.89C440.2 298.89 440.246 298.89 440.314 298.844L449.65 293.451C449.696 293.428 449.719 293.383 449.719 293.383L449.124 293.04C449.101 293.04 449.055 293.04 448.987 293.085L439.651 298.479C439.605 298.502 439.582 298.547 439.582 298.547L440.177 298.89Z" fill="#DFDFDF"/>
<path d="M464.112 284.059C464.135 284.059 464.158 284.059 464.181 284.059L468.14 281.773C468.162 281.751 468.162 281.751 468.14 281.728L467.545 281.385C467.522 281.385 467.499 281.385 467.476 281.385L463.517 283.67C463.494 283.693 463.494 283.693 463.517 283.716L464.112 284.059Z" fill="#DFDFDF"/>
<path d="M408.668 304.329C408.965 304.489 409.56 304.421 409.995 304.169L422.214 297.13C422.649 296.879 422.786 296.536 422.489 296.353L414.388 291.691C414.091 291.531 413.496 291.6 413.061 291.851L400.842 298.89C400.407 299.141 400.293 299.484 400.567 299.667L408.668 304.329Z" fill="#DFDFDF"/>
<path d="M391.85 314.019C392.147 314.179 392.742 314.11 393.177 313.859L405.396 306.82C405.831 306.569 405.968 306.226 405.671 306.043L397.57 301.381C397.273 301.221 396.678 301.29 396.243 301.541L384.024 308.58C383.589 308.831 383.475 309.174 383.749 309.334L391.85 314.019Z" fill="#DFDFDF"/>
<path d="M375.008 323.708C375.305 323.868 375.9 323.8 376.335 323.548L388.554 316.51C388.989 316.258 389.103 315.915 388.829 315.756L380.728 311.094C380.431 310.934 379.836 311.002 379.401 311.254L367.182 318.292C366.747 318.544 366.633 318.886 366.907 319.046L375.008 323.708Z" fill="#DFDFDF"/>
<path d="M358.189 333.421C358.487 333.581 359.082 333.512 359.516 333.261L371.735 326.222C372.17 325.971 372.308 325.628 372.01 325.445L363.91 320.783C363.612 320.623 363.017 320.692 362.583 320.943L350.364 327.982C349.929 328.233 349.814 328.576 350.089 328.736L358.189 333.421Z" fill="#DFDFDF"/>
<path d="M341.348 343.11C341.645 343.27 342.24 343.201 342.675 342.95L354.894 335.911C355.329 335.66 355.443 335.317 355.169 335.157L347.068 330.495C346.771 330.335 346.176 330.404 345.741 330.655L333.522 337.694C333.087 337.945 332.95 338.288 333.248 338.471L341.348 343.11Z" fill="#DFDFDF"/>
<path d="M324.507 352.8C324.804 352.96 325.399 352.891 325.834 352.64L338.053 345.601C338.488 345.35 338.625 345.007 338.328 344.824L330.227 340.162C329.93 340.002 329.335 340.071 328.9 340.322L316.681 347.361C316.246 347.612 316.132 347.955 316.406 348.138L324.507 352.8Z" fill="#DFDFDF"/>
<path d="M286.613 374.647C286.911 374.807 287.506 374.738 287.94 374.487L321.234 355.29C321.669 355.039 321.783 354.696 321.509 354.536L313.408 349.874C313.111 349.714 312.516 349.783 312.081 350.034L278.787 369.231C278.353 369.482 278.238 369.825 278.513 370.008L286.613 374.647Z" fill="#DFDFDF"/>
<path d="M389.287 301.678C389.584 301.838 390.156 301.77 390.614 301.518L402.833 294.48C403.268 294.228 403.405 293.885 403.108 293.725L395.008 289.041C394.71 288.881 394.115 288.949 393.68 289.201L381.461 296.239C381.026 296.491 380.912 296.833 381.187 296.993L389.287 301.678Z" fill="#DFDFDF"/>
<path d="M372.445 312.327C372.743 312.487 373.338 312.419 373.772 312.167L385.991 305.129C386.426 304.877 386.541 304.535 386.266 304.375L378.166 299.69C377.868 299.53 377.273 299.599 376.839 299.85L364.619 306.889C364.185 307.14 364.07 307.483 364.345 307.643L372.445 312.327Z" fill="#DFDFDF"/>
<path d="M355.627 322.04C355.924 322.2 356.519 322.131 356.954 321.88L369.173 314.841C369.608 314.59 369.745 314.247 369.448 314.064L361.347 309.38C361.05 309.22 360.455 309.288 360.02 309.539L347.801 316.578C347.366 316.829 347.252 317.172 347.526 317.332L355.627 322.04Z" fill="#DFDFDF"/>
<path d="M338.785 331.729C339.082 331.889 339.677 331.821 340.112 331.569L352.331 324.531C352.766 324.279 352.903 323.937 352.606 323.777L344.506 319.092C344.208 318.932 343.613 319 343.178 319.252L330.959 326.29C330.524 326.542 330.41 326.885 330.685 327.045L338.785 331.729Z" fill="#DFDFDF"/>
<path d="M321.943 341.419C322.241 341.579 322.836 341.51 323.271 341.259L335.49 334.22C335.925 333.969 336.062 333.626 335.764 333.466L327.664 328.781C327.367 328.621 326.794 328.69 326.337 328.941L314.117 335.98C313.683 336.231 313.568 336.574 313.843 336.734L321.943 341.419Z" fill="#DFDFDF"/>
<path d="M305.125 351.131C305.422 351.291 306.017 351.223 306.452 350.971L318.671 343.933C319.106 343.681 319.243 343.339 318.946 343.156L310.845 338.471C310.548 338.311 309.953 338.38 309.518 338.631L297.299 345.669C296.864 345.921 296.75 346.264 297.025 346.424L305.125 351.131Z" fill="#DFDFDF"/>
<path d="M288.307 360.821C288.604 360.981 289.199 360.912 289.634 360.661L301.853 353.622C302.288 353.371 302.402 353.028 302.128 352.868L294.027 348.183C293.73 348.023 293.158 348.092 292.7 348.343L280.481 355.382C280.046 355.633 279.932 355.976 280.206 356.136L288.307 360.821Z" fill="#DFDFDF"/>
<path d="M382.102 293.908C382.399 294.068 382.994 294 383.429 293.748L395.648 286.71C396.083 286.458 396.197 286.116 395.9 285.956L387.8 281.294C387.502 281.134 386.907 281.202 386.472 281.454L374.253 288.492C373.818 288.744 373.704 289.086 373.979 289.246L382.102 293.908Z" fill="#DFDFDF"/>
<path d="M365.283 303.598C365.581 303.758 366.176 303.689 366.61 303.438L378.829 296.399C379.264 296.148 379.402 295.805 379.104 295.622L371.004 290.96C370.706 290.8 370.111 290.869 369.677 291.12L357.457 298.159C357.023 298.41 356.908 298.753 357.183 298.913L365.283 303.598Z" fill="#DFDFDF"/>
<path d="M348.441 313.287C348.739 313.447 349.333 313.379 349.768 313.127L361.988 306.089C362.422 305.837 362.537 305.495 362.239 305.335L354.139 300.673C353.841 300.513 353.246 300.581 352.812 300.833L340.592 307.871C340.158 308.123 340.02 308.465 340.318 308.625L348.441 313.287Z" fill="#DFDFDF"/>
<path d="M331.623 323C331.92 323.16 332.515 323.114 332.95 322.84L345.169 315.801C345.604 315.55 345.741 315.207 345.444 315.024L337.343 310.362C337.046 310.202 336.451 310.271 336.016 310.522L323.797 317.561C323.362 317.812 323.248 318.155 323.523 318.315L331.623 323Z" fill="#DFDFDF"/>
<path d="M314.781 332.689C315.079 332.849 315.673 332.781 316.108 332.552L328.327 325.514C328.762 325.262 328.877 324.919 328.602 324.737L320.502 320.075C320.204 319.915 319.632 319.983 319.174 320.235L306.955 327.273C306.521 327.525 306.406 327.867 306.681 328.027L314.781 332.689Z" fill="#DFDFDF"/>
<path d="M297.963 342.402C298.261 342.562 298.856 342.493 299.29 342.242L311.51 335.203C311.944 334.952 312.059 334.609 311.761 334.426L303.684 329.764C303.386 329.604 302.791 329.673 302.357 329.924L290.137 336.963C289.703 337.214 289.565 337.557 289.863 337.74L297.963 342.402Z" fill="#DFDFDF"/>
<path d="M281.122 352.091C281.419 352.251 282.014 352.183 282.449 351.931L294.668 344.893C295.103 344.641 295.217 344.298 294.943 344.116L286.842 339.454C286.545 339.294 285.95 339.362 285.515 339.614L273.296 346.652C272.861 346.904 272.747 347.246 273.022 347.406L281.122 352.091Z" fill="#DFDFDF"/>
<path d="M415.693 274.552C415.99 274.712 416.585 274.643 417.02 274.392L437.751 262.44C438.186 262.189 438.323 261.846 438.026 261.663L429.925 257.001C429.628 256.841 429.033 256.91 428.598 257.161L407.867 269.113C407.432 269.365 407.295 269.707 407.592 269.867L415.693 274.552Z" fill="#DFDFDF"/>
<path d="M253.159 355.359C253.457 355.519 254.052 355.451 254.487 355.199L275.218 343.247C275.653 342.996 275.767 342.653 275.493 342.493L267.392 337.831C267.095 337.671 266.5 337.74 266.065 337.991L245.334 349.943C244.899 350.195 244.762 350.537 245.059 350.72L253.159 355.359Z" fill="#DFDFDF"/>
<path d="M422.855 283.282C423.153 283.442 423.748 283.373 424.183 283.122L448.896 268.885C449.33 268.633 449.468 268.29 449.17 268.13L441.07 263.446C440.772 263.286 440.177 263.354 439.743 263.606L415.03 277.843C414.595 278.094 414.48 278.437 414.755 278.597L422.855 283.282Z" fill="#DFDFDF"/>
<path d="M442.236 284.973C442.534 285.133 443.129 285.064 443.563 284.813L460.039 275.329C460.473 275.078 460.588 274.735 460.313 274.552L452.213 269.89C451.915 269.73 451.32 269.799 450.886 270.05L434.41 279.534C433.976 279.785 433.861 280.128 434.136 280.311L442.236 284.973Z" fill="#DFDFDF"/>
<path d="M396.22 272.907C396.517 273.067 397.112 272.998 397.547 272.747L409.766 265.708C410.201 265.457 410.338 265.114 410.041 264.931L401.941 260.269C401.643 260.109 401.048 260.178 400.613 260.429L388.394 267.468C387.959 267.719 387.822 268.062 388.12 268.245L396.22 272.907Z" fill="#DFDFDF"/>
<path d="M379.447 282.573C379.745 282.733 380.34 282.665 380.775 282.413L392.994 275.375C393.429 275.123 393.543 274.781 393.268 274.598L385.168 269.936C384.871 269.776 384.276 269.844 383.841 270.096L371.622 277.134C371.187 277.386 371.05 277.729 371.347 277.911L379.447 282.573Z" fill="#DFDFDF"/>
<path d="M362.629 292.263C362.926 292.423 363.521 292.377 363.956 292.103L376.175 285.064C376.61 284.813 376.724 284.47 376.45 284.31L368.349 279.648C368.052 279.488 367.457 279.557 367.022 279.808L354.803 286.847C354.368 287.098 354.254 287.441 354.528 287.601L362.629 292.263Z" fill="#DFDFDF"/>
<path d="M345.81 301.952C346.107 302.112 346.702 302.044 347.137 301.792L359.356 294.754C359.791 294.502 359.928 294.16 359.631 293.977L351.53 289.315C351.233 289.155 350.638 289.223 350.203 289.475L337.984 296.513C337.549 296.765 337.412 297.108 337.709 297.29L345.81 301.952Z" fill="#DFDFDF"/>
<path d="M328.969 311.665C329.266 311.825 329.838 311.779 330.296 311.505L342.515 304.466C342.95 304.215 343.087 303.872 342.79 303.689L334.689 299.027C334.392 298.867 333.797 298.936 333.362 299.187L321.143 306.226C320.708 306.477 320.594 306.82 320.891 306.98L328.969 311.665Z" fill="#DFDFDF"/>
<path d="M312.127 321.354C312.425 321.514 313.02 321.446 313.454 321.194L325.674 314.156C326.108 313.904 326.223 313.562 325.925 313.402L317.825 308.74C317.528 308.58 316.933 308.648 316.498 308.9L304.279 315.938C303.844 316.19 303.729 316.532 304.004 316.692L312.127 321.354Z" fill="#DFDFDF"/>
<path d="M295.309 331.067C295.606 331.227 296.201 331.158 296.636 330.907L308.855 323.868C309.29 323.617 309.427 323.274 309.129 323.091L301.029 318.429C300.732 318.269 300.137 318.338 299.702 318.589L287.483 325.628C287.048 325.879 286.911 326.222 287.208 326.405L295.309 331.067Z" fill="#DFDFDF"/>
<path d="M278.49 340.756C278.787 340.916 279.382 340.848 279.817 340.596L292.059 333.558C292.494 333.306 292.608 332.964 292.311 332.804L284.21 328.142C283.913 327.982 283.318 328.05 282.883 328.302L270.641 335.34C270.206 335.592 270.092 335.934 270.389 336.094L278.49 340.756Z" fill="#DFDFDF"/>
<path d="M268.697 349.303C268.903 349.189 269.154 349.098 269.406 349.075C269.658 349.052 269.864 349.075 270.001 349.166L278.101 353.828C278.239 353.897 278.307 354.034 278.239 354.171C278.193 354.331 278.033 354.468 277.827 354.582L274.646 356.41L285.263 362.535C285.401 362.603 285.447 362.741 285.401 362.878C285.355 363.038 285.195 363.175 284.989 363.289L276.751 368.042C276.545 368.157 276.294 368.248 276.042 368.271C275.79 368.294 275.561 368.271 275.424 368.202L256.18 357.096C256.043 357.027 255.997 356.89 256.043 356.753C256.088 356.593 256.249 356.456 256.454 356.342L268.697 349.303Z" fill="#DFDFDF"/>
<path d="M444.433 281.042C444.456 281.042 444.501 281.042 444.57 280.997L453.906 275.603C453.952 275.58 453.975 275.535 453.975 275.535L453.38 275.192C453.357 275.192 453.311 275.192 453.242 275.238L443.907 280.631C443.861 280.654 443.838 280.699 443.838 280.699L444.433 281.042Z" fill="#DFDFDF"/>
<path d="M395.694 359.153L439.834 334.426C440.337 334.129 440.337 333.649 439.811 333.352L421.047 322.565C420.521 322.268 419.674 322.246 419.171 322.543L375.031 347.269C374.528 347.566 374.528 348.046 375.054 348.343L393.817 359.13C394.344 359.427 395.19 359.427 395.694 359.153Z" fill="#DFDFDF"/>
<path d="M231.444 309.494L393.566 216.004C396.243 214.45 397.937 210.29 397.342 206.68L383.246 120.319C382.651 116.709 380.02 115.063 377.343 116.594L215.221 210.085C212.544 211.639 210.85 215.798 211.445 219.409L225.541 305.769C226.113 309.357 228.767 311.025 231.444 309.494Z" fill="#FFFAFA"/>
<path d="M213.024 229.052L211.308 218.494C210.804 215.386 212.91 211.433 216.022 209.628L376.564 117.051C379.676 115.246 382.605 116.32 383.109 119.405L384.825 129.963L213.024 229.052Z" fill="#7C7C7C"/>
<path d="M244.831 202.223C245.128 203.526 246.272 204.074 247.393 203.412C248.514 202.772 249.178 201.195 248.881 199.892C248.583 198.59 247.439 198.041 246.318 198.704C245.219 199.344 244.556 200.921 244.831 202.223Z" fill="white"/>
<path d="M236.662 206.931C236.959 208.234 238.103 208.782 239.224 208.119C240.346 207.479 241.009 205.903 240.712 204.6C240.414 203.297 239.27 202.749 238.149 203.412C237.051 204.052 236.387 205.628 236.662 206.931Z" fill="white"/>
<path d="M232.385 211.126C232.904 209.716 232.488 208.266 231.456 207.887C230.424 207.508 229.167 208.344 228.648 209.754C228.129 211.163 228.545 212.613 229.577 212.992C230.608 213.371 231.866 212.536 232.385 211.126Z" fill="white"/>
<path d="M744.169 342.356L745.999 555H361.324L744.169 342.356Z" fill="#F8F8F8"/>
<path d="M743.551 315.71L738.951 372.361L436.927 555H358.166L743.551 315.71Z" fill="#EAEAEA"/>
<path d="M351.554 169.338L355.421 172.606L359.174 163.465" stroke="white" stroke-width="2.9823" stroke-miterlimit="10" stroke-linecap="round" stroke-linejoin="round"/>
<path opacity="0.34" d="M418.485 303.849C418.874 301.404 423.793 299.416 430.223 297.885C428.004 297.176 426.425 295.759 426.127 293.268C426.127 293.268 429.972 291.989 434.777 290.777C433.816 289.978 433.198 288.858 433.015 287.372C433.015 287.372 445.349 283.259 453.403 282.916C456.195 282.665 462.556 282.413 470.313 284.333C478.116 286.275 480.77 289.566 498.07 300.078L589.37 320.326L577.357 364.957L487.04 325.559L475.782 326.976L454.616 321.743C454.616 321.743 442.717 322.588 442.008 317.629C441.207 312.099 455.119 314.361 455.119 314.361L465.348 315.71C468.277 315.687 469.604 315.733 470.084 312.922C470.382 311.253 468.254 310.111 468.185 309.791C468.025 309.06 443.449 304.923 443.449 304.923C443.449 304.923 416.906 313.607 418.485 303.849Z" fill="#DFDFDF"/>
<path opacity="0.34" d="M452.831 450.495C400.408 444.05 307.895 383.445 307.895 383.445L334.049 362.101L445.212 410.023L452.831 450.495Z" fill="#DFDFDF"/>
<path d="M510.518 438.543C497.658 449.992 493.836 457.51 474.981 455.042C450.429 451.82 368.144 406.595 346.566 389.684C338.122 383.056 344.804 361.369 354.849 365.277C378.83 374.624 447.683 404.218 470.199 407.692C472.167 407.989 491.068 406.595 491.983 406.069C493.722 405.109 528.32 422.706 510.518 438.543Z" fill="#FCE0E0"/>
<path d="M644.402 272.632L612.779 214.267C608.294 201.629 603.878 191.483 591.246 195.984L587.494 197.31C574.84 201.789 562.094 216.141 566.579 228.778L592.207 290.892C596.715 303.506 648.887 285.27 644.402 272.632Z" fill="#FCE0E0"/>
<path d="M443.449 289.84C443.449 289.84 416.906 298.547 418.485 288.789C418.874 286.344 423.793 284.356 430.223 282.825C428.004 282.116 426.425 280.699 426.127 278.208C426.127 278.208 429.972 276.929 434.777 275.717C433.816 274.918 433.198 273.798 433.015 272.312C433.015 272.312 445.349 268.199 453.403 267.856C456.195 267.605 462.556 267.353 470.313 269.273C478.299 271.261 480.908 274.666 499.397 285.795C499.397 285.795 498.71 286.413 497.635 287.281C501.067 288.949 503.218 292.583 502.898 296.513L502.852 296.97C502.28 303.758 497.04 309.22 490.29 310.065L475.737 311.893L454.57 306.66C454.57 306.66 442.671 307.506 441.962 302.547C441.161 297.016 455.074 299.279 455.074 299.279L465.302 300.627C468.231 300.604 469.558 300.65 470.039 297.839C470.336 296.171 468.208 295.028 468.14 294.708C468.025 293.954 443.449 289.84 443.449 289.84Z" fill="#FCE0E0"/>
<path d="M430.224 282.802L444.891 279.145L470.222 286.984" stroke="#F2C8C8" stroke-width="3.6829" stroke-miterlimit="10"/>
<path d="M434.777 275.717C435.624 275.009 449.651 271.398 449.651 271.398L474.982 279.237" stroke="#F2C8C8" stroke-width="3.6829" stroke-miterlimit="10"/>
<path d="M498.092 285.018L589.393 305.266L577.357 349.874L484.065 309.174L498.092 285.018Z" fill="#FCE0E0"/>
<path d="M555.779 302.135C568.365 296.49 579.142 289.863 589.073 282.87C646.142 276.357 642.938 249.323 642.938 249.323C669.779 238.719 689.366 256.75 703.851 297.93C710.739 317.515 729.067 411.531 729.067 411.531C729.067 411.554 740.234 539.186 728.884 543.231L573.65 552.623C573.65 552.623 578.318 505.455 575.366 472.113C573.856 454.974 551.157 415.004 544.452 403.829C543.995 403.075 536.924 414.57 536.695 413.976C532.485 403.03 533.675 392.152 539.167 380.725C528.687 358.193 517.634 319.275 555.779 302.135Z" fill="#EEEEEE"/>
<path d="M589.621 363.54L513.286 439.48C488.573 457.556 455.554 416.947 474.706 400.402L536.717 315.71C548.525 301.244 571.293 300.947 580.812 311.573C590.743 322.634 601.085 350.948 589.621 363.54Z" fill="#EEEEEE"/>
<path d="M302.677 329.17C302.609 329.238 301.213 330.884 301.991 333.329C301.991 333.352 301.991 333.375 302.014 333.375C303.432 337.762 310.686 341.602 323.615 344.847C324.05 345.052 325.514 346.104 327.528 347.566C323.134 346.812 317.894 347.338 314.279 349.12C299.932 356.205 294.852 362.26 294.646 362.512L294.371 362.855L294.44 363.289C294.463 363.449 294.737 364.934 296.545 365.757C300.046 367.357 306.659 365.117 316.178 359.13C318.741 357.53 322.036 357.324 326.017 358.513C323.386 358.193 320.823 358.604 318.741 359.678C312.242 363.083 300.229 373.001 299.726 373.435L299.245 373.824L299.382 374.418C299.405 374.578 299.794 375.904 301.51 376.566C302.105 376.795 302.792 376.909 303.57 376.932C303.364 377.046 303.249 377.115 303.249 377.115L302.38 377.617L302.906 378.486C306.75 384.885 313.844 381 319.038 378.166C319.702 377.8 320.366 377.435 320.983 377.115C323.409 375.835 327.116 374.921 329.518 376.543C336.177 381.023 340.754 384.77 342.401 387.124C342.813 387.696 347.184 391.74 347.756 392.38C358.694 404.424 373.59 390.872 370.135 374.738C357.206 362.055 341.372 340.756 331.097 337.762L330.96 337.671L303.112 328.599L302.677 329.17Z" fill="#FCE0E0"/>
<path d="M304.783 376.543L326.613 365.209L337.871 371.219" stroke="#F2C8C8" stroke-width="3.6829" stroke-miterlimit="10"/>
<path d="M325.972 358.536L334.049 362.1" stroke="#F2C8C8" stroke-width="3.6829" stroke-miterlimit="10"/>
<path d="M568.021 296.079C617.951 286.161 648.682 319.457 653.052 246.649C653.052 246.649 639.392 245.278 635.181 252.591C627.813 265.434 627.287 272.495 606.51 272.335C595.755 272.267 581.98 271.764 578.845 277.043L568.021 296.079Z" fill="white"/>
<path d="M538 414.456L513.287 439.023C504.317 445.581 494.249 444.416 485.988 439.457C502.944 438.314 511.365 426.842 530.952 407.852C534.133 404.789 538 414.456 538 414.456Z" fill="#D9D9D9"/>
<path d="M533.331 155.695C533.331 155.695 522.142 169.567 524.979 184.878C525.528 187.803 527.038 195.047 527.862 198.407C529.807 206.428 527.862 206.862 525.482 214.975C525.208 215.889 523.217 218.86 520.906 224.733C520.494 225.761 520.517 226.927 520.975 227.955C521.936 230.126 524.224 233.349 529.533 232.549C531.844 232.206 532.278 235.748 533.514 240.821C535.459 248.843 538.891 257.001 543.262 259.675C551.66 264.84 580.949 254.167 580.949 254.167L589.484 201.72L533.331 155.695Z" fill="#FCE0E0"/>
<path d="M582.849 268.107C582.849 268.107 587.815 254.419 585.275 248.134C583.375 251.265 581.018 254.007 577.7 255.676L582.849 268.107Z" fill="#F2C8C8"/>
<path d="M546.123 408.674C546.123 408.674 572.644 453.923 574.314 467.063C575.984 480.203 573.696 552.623 573.696 552.623L589.416 552.509L611.749 484.66L575.733 376.498C573.49 369.756 564.086 379.949 558.823 384.748L529.693 408.949L538 414.479L546.123 408.674Z" fill="#D9D9D9"/>
<path d="M534.613 227.293C534.613 227.293 535.116 230.126 532.896 231.909" stroke="#F2C8C8" stroke-width="3.9584" stroke-miterlimit="10" stroke-linecap="round" stroke-linejoin="round"/>
<path d="M576.076 374.098C576.076 374.098 608.546 329.513 568.021 297.93" stroke="#D9D9D9" stroke-width="4.8571" stroke-miterlimit="10" stroke-linecap="round" stroke-linejoin="round"/>
<path d="M616.898 226.493C621.405 225.03 624.563 220.963 624.815 216.232C625.57 202.406 625.959 173.566 617.859 155.627C606.898 131.357 546.466 165.248 546.466 165.248L585.572 228.115C586.212 229.144 587.334 230.172 588.707 231.063C594.45 234.857 601.91 234.925 607.928 231.543L616.898 226.493Z" fill="#2B2B2B"/>
<path d="M525.758 189.037C525.895 190.614 504.912 149.959 546.672 133.917C613.695 108.185 620.033 163.602 620.033 163.602C620.033 163.602 594.954 187.598 558.525 174.48C549.876 181.404 531.204 182.021 525.781 177.565C525.804 177.565 525.003 180.056 525.758 189.037Z" fill="#2B2B2B"/>
<path d="M583.093 224.099C588.708 223.618 592.694 216.642 591.996 208.519C591.298 200.396 586.18 194.201 580.564 194.683C574.949 195.164 570.962 202.139 571.661 210.262C572.359 218.386 577.477 224.58 583.093 224.099Z" fill="#FCE0E0"/>
<path d="M598.341 513.477L574.726 507.992L574.657 471.702L465.852 537.495L531.249 555H589.394L598.341 513.477Z" fill="#2A2A2A"/>
<path d="M653.601 515.122C619.896 521.315 585.663 528.194 567.357 515.122C558.937 509.477 566.007 502.69 571.591 505.547C594.771 514.322 622.092 508.449 653.578 504.107C656.324 504.107 658.567 506.347 658.567 509.089V510.117C658.59 512.905 656.347 515.122 653.601 515.122Z" fill="black"/>
<path d="M518.916 433.789C518.916 433.789 487.979 409.931 484.066 395.054C480.176 380.177 469.993 397.065 469.993 397.065C469.993 397.065 462.144 418.661 473.471 430.636C484.821 442.611 497.543 463.429 518.916 433.789Z" fill="#D9D9D9"/>
<path opacity="0.34" d="M344.117 506.187L377.274 487.082C379.356 485.871 379.104 483.746 376.679 482.352L313.913 446.153C311.487 444.759 307.803 444.599 305.721 445.81L272.564 464.915C270.482 466.126 270.734 468.251 273.159 469.645L335.925 505.844C338.351 507.238 342.035 507.375 344.117 506.187Z" fill="#D7D7D7"/>
<path d="M264.532 467.886V467.84V467.817L264.669 464.846L267.003 465.235L299.107 446.724C301.189 445.513 304.896 445.673 307.299 447.067L368.692 482.466L372.216 483.06L372.079 485.939C372.079 486.716 371.621 487.448 370.683 487.996L337.526 507.101C335.444 508.312 331.737 508.152 329.335 506.758L266.568 470.559C265.195 469.828 264.509 468.823 264.532 467.886Z" fill="#FFFAFA"/>
<path d="M337.616 504.244L370.773 485.139C372.855 483.928 372.604 481.803 370.178 480.409L307.412 444.21C304.986 442.816 301.302 442.656 299.22 443.867L266.063 462.972C263.981 464.184 264.233 466.309 266.658 467.703L329.424 503.902C331.85 505.296 335.534 505.456 337.616 504.244Z" fill="black"/>
<path d="M329.151 503.764L370.477 480.592L306.956 443.982L266.202 467.429L329.151 503.764Z" fill="#2B2B2B"/>
<path opacity="0.34" d="M213.116 534.501L200.965 527.485L191.904 522.252C190.004 521.155 185.748 520.538 182.224 522.572C180.028 523.852 179.685 525.383 179.685 526.183C179.685 527.44 180.44 528.651 181.675 529.359L196.091 537.678C196.251 537.769 196.434 537.815 196.617 537.815C196.984 537.815 197.327 537.632 197.51 537.289C197.807 536.786 197.624 536.147 197.121 535.872L182.705 527.554C182.11 527.211 181.767 526.686 181.767 526.183C181.767 525.566 182.293 524.926 183.254 524.377C186.023 522.778 189.432 523.235 190.851 524.058L192.453 524.995C191.629 525.177 190.828 525.452 190.119 525.863C188.792 526.64 188.014 527.737 188.014 528.879C188.014 529.908 188.586 530.799 189.661 531.393L205.107 540.306C206.022 540.831 207.212 541.083 208.448 541.083C209.912 541.083 211.422 540.717 212.635 540.032C213.962 539.255 214.74 538.158 214.74 537.015C214.74 536.009 214.168 535.095 213.116 534.501ZM211.605 538.226C210.027 539.14 207.487 539.255 206.159 538.5L190.714 529.588C190.485 529.451 190.119 529.199 190.119 528.857C190.119 528.582 190.393 528.102 191.171 527.645C191.744 527.325 192.43 527.097 193.139 526.983C193.231 527.12 193.345 527.257 193.505 527.325L207.166 535.21C207.326 535.301 207.509 535.347 207.693 535.347C208.059 535.347 208.402 535.164 208.585 534.821C208.676 534.661 208.722 534.501 208.722 534.341L212.086 536.284C212.315 536.421 212.681 536.672 212.681 537.015C212.658 537.289 212.383 537.792 211.605 538.226Z" fill="#00D254" fill-opacity="0.64"/>
<path d="M206.617 532.216C206.434 532.216 206.251 532.17 206.091 532.079L192.43 524.195C191.927 523.898 191.767 523.281 192.041 522.778C192.339 522.275 192.957 522.115 193.46 522.389L207.121 530.274C207.624 530.571 207.784 531.188 207.51 531.69C207.327 532.01 206.984 532.216 206.617 532.216Z" fill="#00D254" fill-opacity="0.64"/>
<path d="M207.418 537.929C206.183 537.929 204.993 537.678 204.078 537.152L188.632 528.24C187.579 527.623 186.984 526.731 186.984 525.726C186.984 524.583 187.762 523.486 189.09 522.709C191.332 521.407 194.627 521.292 196.618 522.435L212.064 531.348C213.116 531.965 213.711 532.856 213.711 533.861C213.711 535.004 212.933 536.101 211.606 536.878C210.393 537.586 208.86 537.929 207.418 537.929ZM193.3 523.738C192.202 523.738 191.012 524.012 190.142 524.515C189.364 524.972 189.09 525.452 189.09 525.726C189.09 526.046 189.456 526.32 189.685 526.457L205.13 535.37C206.457 536.124 208.997 536.01 210.576 535.095C211.354 534.638 211.629 534.159 211.629 533.884C211.629 533.564 211.263 533.29 211.034 533.153L195.588 524.24C194.993 523.898 194.169 523.738 193.3 523.738Z" fill="#00D254" fill-opacity="0.64"/>
<path d="M195.565 534.661C195.382 534.661 195.199 534.616 195.039 534.524L180.623 526.206C179.387 525.497 178.632 524.286 178.632 523.029C178.632 522.229 178.952 520.698 181.172 519.418C184.696 517.385 188.952 518.002 190.851 519.099L205.267 527.417C205.77 527.714 205.931 528.331 205.656 528.834C205.359 529.337 204.741 529.497 204.237 529.222L189.821 520.904C188.403 520.081 184.993 519.624 182.224 521.224C181.263 521.772 180.737 522.412 180.737 523.029C180.737 523.532 181.103 524.058 181.675 524.4L196.091 532.719C196.595 533.016 196.755 533.633 196.48 534.136C196.274 534.478 195.908 534.661 195.565 534.661Z" fill="#00D254" fill-opacity="0.64"/>
<path d="M210.484 482.877L293.936 434.772V429.882L176.687 367.174L93.2578 410.411V415.279L210.484 482.877Z" fill="#2B2B2B"/>
<path d="M210.484 478.009L293.936 429.882L176.687 362.283L93.2578 410.411L210.484 478.009Z" fill="#545454"/>
<path d="M121.472 534.615L207.509 485.002V479.975L86.6217 415.324L0.583984 459.887V464.938L121.472 534.615Z" fill="#2B2B2B"/>
<path d="M121.472 529.588L207.509 479.975L86.6217 410.297L0.583984 459.887L121.472 529.588Z" fill="#545454"/>
<path d="M89.1391 419.671H92.457V417.454H89.1391V419.671Z" fill="#DD4078"/>
<path d="M124.08 522.526C124.08 522.526 161.767 501.959 197.67 479.243C197.807 479.152 197.67 471.999 197.67 471.999C179.341 460.39 91.3584 416.421 91.3584 416.421L16.9678 459.636L124.08 522.526Z" fill="#DDDDDD"/>
<path d="M124.08 515.282C124.08 515.282 161.767 494.715 197.67 471.999C198.814 471.153 91.3583 409.2 91.3583 409.2L16.9678 452.414L124.08 515.282Z" fill="white"/>
<path d="M210.278 471.976C210.278 471.976 247.966 451.409 283.868 428.693C284.005 428.602 283.868 421.449 283.868 421.449C265.539 409.84 177.557 365.871 177.557 365.871L103.166 401.841V409.086L210.278 471.976Z" fill="#DDDDDD"/>
<path d="M210.278 464.755C210.278 464.755 247.966 444.187 283.868 421.472C285.012 420.626 177.557 358.673 177.557 358.673L103.166 401.887L210.278 464.755Z" fill="white"/>
<path d="M19.2103 451.089L7.79199 457.579L25.4801 467.429L49.0033 468.411L19.2103 451.089Z" fill="#FFFAFA"/>
<path d="M49.6894 452.871L92.5481 428.168L83.0062 422.66L40.1475 447.364L49.6894 452.871Z" stroke="#DEDEDE" stroke-width="2.7858" stroke-miterlimit="10" stroke-linecap="round" stroke-linejoin="round"/>
<path d="M125.728 502.21L132.913 498.074L125.774 493.961L118.589 498.097L125.728 502.21Z" stroke="#DEDEDE" stroke-width="2.7858" stroke-miterlimit="10" stroke-linecap="round" stroke-linejoin="round"/>
<path d="M162.865 472.616L129.709 491.447" stroke="#DEDEDE" stroke-width="2.7858" stroke-miterlimit="10" stroke-linecap="round" stroke-linejoin="round"/>
<path d="M154.149 484.797L135.156 495.56" stroke="#DEDEDE" stroke-width="2.7858" stroke-miterlimit="10" stroke-linecap="round" stroke-linejoin="round"/>
<path d="M113.189 494.875L120.351 490.716L113.235 486.602L106.05 490.761L113.189 494.875Z" stroke="#DEDEDE" stroke-width="2.7858" stroke-miterlimit="10" stroke-linecap="round" stroke-linejoin="round"/>
<path d="M150.327 465.281L117.171 484.088" stroke="#DEDEDE" stroke-width="2.7858" stroke-miterlimit="10" stroke-linecap="round" stroke-linejoin="round"/>
<path d="M141.609 477.461L122.617 488.225" stroke="#DEDEDE" stroke-width="2.7858" stroke-miterlimit="10" stroke-linecap="round" stroke-linejoin="round"/>
<path d="M100.649 487.516L107.811 483.38L100.672 479.266L93.5098 483.403L100.649 487.516Z" stroke="#DEDEDE" stroke-width="2.7858" stroke-miterlimit="10" stroke-linecap="round" stroke-linejoin="round"/>
<path d="M137.764 457.945L104.607 476.753" stroke="#DEDEDE" stroke-width="2.7858" stroke-miterlimit="10" stroke-linecap="round" stroke-linejoin="round"/>
<path d="M129.046 470.125L110.076 480.889" stroke="#DEDEDE" stroke-width="2.7858" stroke-miterlimit="10" stroke-linecap="round" stroke-linejoin="round"/>
<path d="M88.0862 480.18L95.2712 476.044L88.1319 471.931L80.9697 476.067L88.0862 480.18Z" stroke="#DEDEDE" stroke-width="2.7858" stroke-miterlimit="10" stroke-linecap="round" stroke-linejoin="round"/>
<path d="M125.224 450.609L92.0674 469.417" stroke="#DEDEDE" stroke-width="2.7858" stroke-miterlimit="10" stroke-linecap="round" stroke-linejoin="round"/>
<path d="M116.506 462.767L97.5361 473.553" stroke="#DEDEDE" stroke-width="2.7858" stroke-miterlimit="10" stroke-linecap="round" stroke-linejoin="round"/>
<path d="M75.5475 472.845L82.7325 468.708L75.5933 464.595L68.4082 468.731L75.5475 472.845Z" stroke="#DEDEDE" stroke-width="2.7858" stroke-miterlimit="10" stroke-linecap="round" stroke-linejoin="round"/>
<path d="M112.686 443.273L79.5293 462.081" stroke="#DEDEDE" stroke-width="2.7858" stroke-miterlimit="10" stroke-linecap="round" stroke-linejoin="round"/>
<path d="M103.967 455.431L84.998 466.195" stroke="#DEDEDE" stroke-width="2.7858" stroke-miterlimit="10" stroke-linecap="round" stroke-linejoin="round"/>
<path d="M63.0074 465.509L70.1925 461.373L63.0532 457.259L55.8682 461.395L63.0074 465.509Z" stroke="#DEDEDE" stroke-width="2.7858" stroke-miterlimit="10" stroke-linecap="round" stroke-linejoin="round"/>
<path d="M100.146 435.915L66.9893 454.745" stroke="#DEDEDE" stroke-width="2.7858" stroke-miterlimit="10" stroke-linecap="round" stroke-linejoin="round"/>
<path d="M91.4269 448.095L72.4346 458.859" stroke="#DEDEDE" stroke-width="2.7858" stroke-miterlimit="10" stroke-linecap="round" stroke-linejoin="round"/>
<path d="M137.375 401.682L177.854 378.326L168.838 373.138L128.359 396.494L137.375 401.682Z" stroke="#DEDEDE" stroke-width="2.7858" stroke-miterlimit="10" stroke-linecap="round" stroke-linejoin="round"/>
<path d="M152.111 410.297L192.59 386.942L183.575 381.731L143.096 405.087L152.111 410.297Z" stroke="#DEDEDE" stroke-width="2.7858" stroke-miterlimit="10" stroke-linecap="round" stroke-linejoin="round"/>
<path d="M166.848 418.889L207.349 395.534L198.334 390.346L157.832 413.702L166.848 418.889Z" stroke="#DEDEDE" stroke-width="2.7858" stroke-miterlimit="10" stroke-linecap="round" stroke-linejoin="round"/>
<path d="M181.584 427.505L222.086 404.15L213.07 398.939L172.568 422.295L181.584 427.505Z" stroke="#DEDEDE" stroke-width="2.7858" stroke-miterlimit="10" stroke-linecap="round" stroke-linejoin="round"/>
<path d="M196.319 436.098L236.821 412.742L227.805 407.555L187.304 430.91L196.319 436.098Z" stroke="#DEDEDE" stroke-width="2.7858" stroke-miterlimit="10" stroke-linecap="round" stroke-linejoin="round"/>
<path d="M211.056 444.713L251.558 421.358L242.542 416.147L202.04 439.503L211.056 444.713Z" stroke="#DEDEDE" stroke-width="2.7858" stroke-miterlimit="10" stroke-linecap="round" stroke-linejoin="round"/>
<path d="M194.763 452.666C195.825 452.666 196.685 452.185 196.685 451.592C196.685 450.999 195.825 450.518 194.763 450.518C193.701 450.518 192.841 450.999 192.841 451.592C192.841 452.185 193.701 452.666 194.763 452.666Z" fill="#EDE1E1"/>
<path d="M174.421 461.853C174.421 462.447 175.29 462.927 176.343 462.927C177.396 462.927 178.265 462.447 178.265 461.853C178.265 461.259 177.396 460.779 176.343 460.779C175.29 460.779 174.421 461.259 174.421 461.853Z" fill="#EDE1E1"/>
<path d="M194.764 451.249C194.764 445.422 190.645 443.068 185.565 446.016C180.485 448.941 176.366 456.048 176.366 461.875" stroke="#433878" stroke-width="2.7858" stroke-miterlimit="10" stroke-linecap="round" stroke-linejoin="round"/>
<path d="M177.075 441.948C177.075 442.542 177.945 443.022 178.997 443.022C180.05 443.022 180.92 442.542 180.92 441.948C180.92 441.354 180.05 440.874 178.997 440.874C177.922 440.874 177.075 441.354 177.075 441.948Z" fill="#EDE1E1"/>
<path d="M160.577 453.306C161.639 453.306 162.5 452.825 162.5 452.232C162.5 451.638 161.639 451.157 160.577 451.157C159.516 451.157 158.655 451.638 158.655 452.232C158.655 452.825 159.516 453.306 160.577 453.306Z" fill="#EDE1E1"/>
<path d="M178.998 441.605C178.998 435.778 174.879 433.424 169.799 436.372C164.719 439.297 160.601 446.404 160.601 452.231" stroke="#433878" stroke-width="2.7858" stroke-miterlimit="10" stroke-linecap="round" stroke-linejoin="round"/>
<path d="M163.208 433.378C164.27 433.378 165.13 432.897 165.13 432.304C165.13 431.711 164.27 431.23 163.208 431.23C162.147 431.23 161.286 431.711 161.286 432.304C161.286 432.897 162.147 433.378 163.208 433.378Z" fill="#EDE1E1"/>
<path d="M144.788 443.662C145.85 443.662 146.71 443.181 146.71 442.588C146.71 441.995 145.85 441.514 144.788 441.514C143.727 441.514 142.866 441.995 142.866 442.588C142.866 443.181 143.727 443.662 144.788 443.662Z" fill="#EDE1E1"/>
<path d="M163.209 431.961C163.209 426.134 159.09 423.78 154.01 426.728C148.93 429.653 144.812 436.76 144.812 442.588" stroke="#433878" stroke-width="2.7858" stroke-miterlimit="10" stroke-linecap="round" stroke-linejoin="round"/>
<path d="M147.008 423.871C148.07 423.871 148.93 423.391 148.93 422.797C148.93 422.204 148.07 421.723 147.008 421.723C145.947 421.723 145.086 422.204 145.086 422.797C145.086 423.391 145.947 423.871 147.008 423.871Z" fill="#EDE1E1"/>
<path d="M128.588 434.132C129.65 434.132 130.51 433.651 130.51 433.058C130.51 432.465 129.65 431.984 128.588 431.984C127.527 431.984 126.666 432.465 126.666 433.058C126.666 433.651 127.527 434.132 128.588 434.132Z" fill="#EDE1E1"/>
<path d="M147.009 422.432C147.009 416.604 142.89 414.25 137.81 417.198C132.73 420.146 128.611 427.231 128.611 433.058" stroke="#433878" stroke-width="2.7858" stroke-miterlimit="10" stroke-linecap="round" stroke-linejoin="round"/>
<path d="M131.105 414.639C132.166 414.639 133.027 414.158 133.027 413.565C133.027 412.972 132.166 412.491 131.105 412.491C130.043 412.491 129.183 412.972 129.183 413.565C129.183 414.158 130.043 414.639 131.105 414.639Z" fill="#EDE1E1"/>
<path d="M110.763 423.849C110.763 424.443 111.632 424.923 112.685 424.923C113.737 424.923 114.607 424.443 114.607 423.849C114.607 423.254 113.737 422.774 112.685 422.774C111.632 422.752 110.763 423.254 110.763 423.849Z" fill="#EDE1E1"/>
<path d="M131.105 413.222C131.105 407.395 126.987 405.041 121.907 407.989C116.827 410.914 112.708 418.021 112.708 423.849" stroke="#433878" stroke-width="2.7858" stroke-miterlimit="10" stroke-linecap="round" stroke-linejoin="round"/>
<path opacity="0.34" d="M243.961 399.899C244.075 400.516 244.029 401.11 243.869 401.636C243.869 401.659 243.869 401.659 243.869 401.681C243.503 402.87 242.519 403.738 241.26 403.83L239.91 403.944L167.03 409.68C166.618 409.703 166.183 409.657 165.794 409.52L157.122 408.446L151.768 407.532L156.527 406.115L164.605 402.733C164.948 402.55 165.337 402.413 165.772 402.39L234.876 396.951L239.979 396.539C240.322 396.517 240.665 396.539 240.986 396.631C241.215 396.677 241.421 396.768 241.627 396.859C241.833 396.951 242.038 397.065 242.221 397.202C242.405 397.339 242.588 397.499 242.771 397.659C242.862 397.751 242.931 397.842 243.022 397.934C243.503 398.459 243.846 399.145 243.961 399.899Z" fill="#727272"/>
<path d="M159.709 404.332C159.937 406.32 161.676 407.829 163.576 407.692L240.712 402.161C242.611 402.024 244.007 400.287 243.778 398.299C243.549 396.311 241.81 394.803 239.911 394.94L162.775 400.47C160.853 400.607 159.48 402.344 159.709 404.332Z" fill="#00AF46"/>
<path d="M159.709 404.332L243.778 398.299C243.549 396.311 241.81 394.803 239.911 394.94L162.775 400.47C160.853 400.607 159.48 402.344 159.709 404.332Z" fill="#00D254"/>
<path d="M163.575 407.692L153.416 406.458L152.958 404.127L161.539 400.813L164.124 401.567L162.889 403.441L164.651 404.904L163.324 406.092L165.177 406.892L163.575 407.692Z" fill="#D4B3B3"/>
<path d="M153.21 405.406L152.958 404.127L161.539 400.813L164.125 401.567L162.889 403.441L164.651 404.904L153.21 405.406Z" fill="#F7D1D2"/>
<path d="M147.924 405.521L153.416 406.458L152.958 404.127L147.924 405.521Z" fill="#56446B"/>
<path d="M243.755 398.299C243.984 400.287 242.588 402.024 240.689 402.161L235.358 402.55C235.769 400.745 235.861 398.208 234.557 395.328L239.865 394.94C241.81 394.803 243.549 396.311 243.755 398.299Z" fill="#7C64BA"/>
<path d="M233.687 402.664C233.687 402.664 234.968 398.711 232.451 395.466" stroke="#FFFAFA" stroke-width="1.8831" stroke-miterlimit="10" stroke-linecap="round" stroke-linejoin="round"/>
<path d="M753.634 549.513L593 549.215C593.16 546.519 593.664 542.977 594.281 540.28L623.662 416.259C628.971 393.794 645.195 371.33 664.21 360.064L753.611 307V549.513H753.634Z" fill="#545454"/>
<path d="M745.954 555H632.343L650.672 438.703C658.68 404.881 706.962 383.468 735.611 366.511L745.954 360.729C746.045 362.101 745.954 555 745.954 555Z" fill="#2A2A2A"/>
<path d="M296.132 473.233L320.982 458.904C322.126 458.242 321.989 457.076 320.662 456.299L312.493 451.592C311.166 450.815 309.152 450.746 307.985 451.409L283.135 465.737C281.991 466.4 282.128 467.566 283.455 468.343L291.624 473.05C292.951 473.827 294.965 473.919 296.132 473.233Z" fill="white"/>
<path d="M293.071 470.452C296.167 470.435 298.669 468.969 298.659 467.176C298.65 465.384 296.132 463.945 293.036 463.962C289.94 463.978 287.438 465.445 287.447 467.237C287.457 469.029 289.975 470.469 293.071 470.452Z" fill="#D7D7D7"/>
<path d="M312.653 454.265L297.665 462.949" stroke="#D7D7D7" stroke-width="1.9227" stroke-miterlimit="10" stroke-linecap="round" stroke-linejoin="round"/>
<path d="M315.422 456.642L307.642 461.144" stroke="#D7D7D7" stroke-width="1.9227" stroke-miterlimit="10" stroke-linecap="round" stroke-linejoin="round"/>
<path d="M315.4 484.774L340.25 470.445C341.394 469.782 341.257 468.617 339.929 467.84L331.76 463.132C330.433 462.355 328.42 462.287 327.253 462.949L302.402 477.278C301.258 477.941 301.396 479.106 302.723 479.883L310.892 484.591C312.219 485.345 314.255 485.436 315.4 484.774Z" fill="#00C213"/>
<path d="M312.339 481.97C315.435 481.953 317.937 480.487 317.927 478.694C317.917 476.902 315.4 475.463 312.303 475.48C309.207 475.497 306.705 476.963 306.715 478.755C306.725 480.547 309.242 481.987 312.339 481.97Z" fill="white"/>
<path d="M331.944 465.806L316.956 474.49" stroke="white" stroke-width="1.9227" stroke-miterlimit="10" stroke-linecap="round" stroke-linejoin="round"/>
<path d="M334.713 468.16L326.91 472.685" stroke="white" stroke-width="1.9227" stroke-miterlimit="10" stroke-linecap="round" stroke-linejoin="round"/>
<path d="M334.69 496.314L359.54 481.986C360.684 481.323 360.547 480.157 359.22 479.38L351.051 474.673C349.723 473.896 347.71 473.827 346.543 474.49L321.692 488.819C320.548 489.481 320.686 490.647 322.013 491.424L330.182 496.131C331.509 496.885 333.523 496.977 334.69 496.314Z" fill="white"/>
<path d="M331.63 493.511C334.726 493.494 337.228 492.027 337.218 490.235C337.209 488.443 334.691 487.004 331.595 487.02C328.498 487.037 325.996 488.504 326.006 490.296C326.016 492.088 328.534 493.527 331.63 493.511Z" fill="#D7D7D7"/>
<path d="M351.211 477.324L336.223 486.008" stroke="#D7D7D7" stroke-width="1.9227" stroke-miterlimit="10" stroke-linecap="round" stroke-linejoin="round"/>
<path d="M353.979 479.7L346.199 484.202" stroke="#D7D7D7" stroke-width="1.9227" stroke-miterlimit="10" stroke-linecap="round" stroke-linejoin="round"/>
<path d="M582.688 209.376C583.397 212.553 581.384 215.729 579.736 216.095C578.112 216.46 579.164 213.512 578.455 210.336C577.745 207.159 575.526 204.943 577.173 204.577C578.775 204.188 581.979 206.177 582.688 209.376Z" fill="#F2C8C8"/>
<path d="M571.43 209.925C571.43 209.925 571.224 201.812 574.702 198.384" stroke="#F2C8C8" stroke-width="3.9584" stroke-miterlimit="10" stroke-linecap="round" stroke-linejoin="round"/>
<path opacity="0.34" d="M336.748 237.759L304.14 256.955C295.079 262.28 286.361 257.847 284.736 247.083L282.677 233.463C281.052 222.699 287.139 209.536 296.2 204.211L328.807 185.015C337.869 179.69 346.587 184.124 348.212 194.888L350.271 208.508C351.896 219.271 345.809 232.434 336.748 237.759Z" fill="#DFDFDF"/>
<path d="M333.362 233.006L300.755 252.202C291.693 257.527 282.975 253.093 281.35 242.33L279.291 228.709C277.666 217.946 283.753 204.783 292.814 199.458L325.422 180.262C334.483 174.937 343.201 179.371 344.826 190.134L346.885 203.754C348.51 214.518 342.423 227.681 333.362 233.006Z" fill="#00D254"/>
<path d="M308.878 230.743L306.017 211.73C305.788 210.199 307.001 208.393 308.26 208.393L325.696 208.485C327.092 208.485 327.412 210.656 326.245 212.187L311.669 231.109C310.617 232.48 309.106 232.274 308.878 230.743Z" fill="white"/>
<path opacity="0.34" d="M280.663 234.057L268.329 241.324C260.984 245.643 256.064 256.293 257.369 265.022C258.673 273.729 265.744 277.34 273.089 273.021L285.423 265.754C285.72 265.571 286.04 265.365 286.338 265.182L286.224 265.297L293.981 265.937L291.921 259.492C295.377 254.419 297.23 247.837 296.383 242.078C295.079 233.326 288.008 229.738 280.663 234.057Z" fill="#DFDFDF"/>
<path opacity="0.34" d="M354.688 168.355L340.203 176.88C334.414 180.285 330.501 188.717 331.531 195.619L331.782 197.355C332.812 204.234 338.418 207.091 344.208 203.686L358.692 195.162C364.481 191.757 368.394 183.324 367.365 176.422L367.113 174.686C366.083 167.784 360.5 164.928 354.688 168.355Z" fill="#E3CFCF"/>
<path d="M281.373 266.393L269.039 273.661C261.694 277.98 254.623 274.392 253.319 265.662C252.015 256.955 256.934 246.283 264.28 241.964L276.613 234.697C283.958 230.378 291.029 233.966 292.333 242.695C293.637 251.402 288.718 262.074 281.373 266.393Z" fill="#C4C4C4"/>
<path d="M282.174 265.914L289.931 266.554L287.872 260.086L282.174 265.914Z" fill="#C4C4C4"/>
<path d="M267.264 258.675C267.929 257.106 267.61 255.471 266.551 255.023C265.492 254.575 264.094 255.484 263.429 257.053C262.763 258.622 263.082 260.257 264.141 260.705C265.2 261.153 266.598 260.244 267.264 258.675Z" fill="white"/>
<path d="M274.657 254.327C275.322 252.758 275.003 251.123 273.945 250.675C272.886 250.227 271.488 251.136 270.822 252.705C270.157 254.274 270.476 255.909 271.534 256.357C272.593 256.805 273.991 255.896 274.657 254.327Z" fill="white"/>
<path d="M282.059 249.959C282.725 248.39 282.406 246.755 281.347 246.307C280.288 245.859 278.89 246.767 278.225 248.336C277.559 249.905 277.878 251.54 278.937 251.988C279.996 252.436 281.394 251.528 282.059 249.959Z" fill="white"/>
<path d="M361.118 188.032L346.633 196.556C340.844 199.961 335.238 197.127 334.208 190.226L333.956 188.489C332.927 181.61 336.817 173.178 342.629 169.75L357.113 161.226C362.902 157.821 368.509 160.654 369.538 167.556L369.79 169.293C370.82 176.194 366.93 184.627 361.118 188.032Z" fill="#2B2B2B"/>
<path d="M338.898 178.456L361.827 164.951" stroke="#FFFAFA" stroke-width="2.4286" stroke-miterlimit="10" stroke-linecap="round" stroke-linejoin="round"/>
<path d="M339.859 184.969L362.81 171.464" stroke="#FFFAFA" stroke-width="2.4286" stroke-miterlimit="10" stroke-linecap="round" stroke-linejoin="round"/>
<path d="M340.844 191.505L356.656 182.204" stroke="#FFFAFA" stroke-width="2.4286" stroke-miterlimit="10" stroke-linecap="round" stroke-linejoin="round"/>
</svg>
